<?xml version="1.0" encoding="utf-8"?>
<!DOCTYPE svg PUBLIC "-//W3C//DTD SVG 1.0//EN" "http://www.w3.org/TR/2001/REC-SVG-20010904/DTD/svg10.dtd">
<svg version="1.0" xmlns="http://www.w3.org/2000/svg" viewBox="0 0 5000 1333" preserveAspectRatio="xMidYMid meet">
 <g fill="#f3a723">
  <path d="M 1184.2 1259.9 c -11.6 -2.3 -23.5 -11.2 -28.8 -21.6 -2.7 -5.3 -2.9 -6.7 -2.9 -16.3 0 -10.5 0 -10.5 4.4 -19 6.9 -13.1 7 -12.3 -9.9 -58 -24.7 -67.1 -47 -130.2 -47 -133.3 0 -0.4 1 -0.7 2.2 -0.5 2.6 0.4 3.8 2.6 20.2 37.8 27 57.9 60.7 126.5 63.5 129.1 2 1.8 4.8 3 9.2 3.8 18.9 3.3 32.2 17.7 33.6 36.3 1.6 20.7 -10.7 37.5 -30.5 41.7 -6 1.2 -7.8 1.2 -14 0 z "/>
  <path d="M 824 1102.4 c -11.4 -3.1 -20.2 -10.5 -25.3 -21.2 -3 -6.2 -3.2 -7.5 -3.2 -17.2 0 -9.8 0.2 -10.9 3.2 -17.1 3 -6.1 11.7 -15.9 15.2 -17 1 -0.4 -2 -6.4 -10.1 -20.4 -6.3 -11 -15.7 -27.9 -20.8 -37.5 -5.1 -9.6 -14.5 -26.7 -20.8 -38 -6.3 -11.3 -16.4 -29.3 -22.4 -40 l -10.9 -19.5 -13.2 -0.6 c -16.1 -0.7 -22.4 -2.5 -32.1 -9 -13.3 -8.9 -23.1 -21.4 -28.3 -36.1 -3.4 -9.3 -3.8 -25.5 -1 -35.8 5.3 -19.4 18.7 -35.6 36.4 -44.1 16 -7.6 38.9 -7.1 55.6 1.2 l 6.2 3 3.6 -4.3 c 2.1 -2.4 27.6 -27.8 56.8 -56.6 47.7 -47.1 53.2 -52.2 55.1 -51.2 1.1 0.6 2 1.4 2 1.8 0 0.8 -35.8 45.7 -56.1 70.2 -7.4 9.1 -20.6 25.3 -29.3 36.2 l -15.7 19.6 3.1 4.6 c 1.7 2.5 4.5 8.3 6.2 12.8 3.5 9.3 4 17.2 2.4 35.5 -0.8 8.8 -0.6 10.9 0.9 14.9 1.4 3.8 2.5 5 6 6.5 10.5 4.6 137.1 49.3 168.5 59.4 21 6.8 39.4 14.8 38.7 16.8 -0.8 2.5 -8.6 1.8 -20.9 -1.7 -6.8 -1.9 -29.2 -8 -49.8 -13.6 -20.6 -5.6 -52.7 -14.4 -71.5 -19.7 -18.7 -5.2 -40.2 -11.3 -47.9 -13.4 -16.7 -4.7 -36.3 -8.9 -41.2 -8.9 -4.7 0 -11.4 2 -11.4 3.4 0 0.6 1.3 4.3 3 8.1 27.1 63.8 39.5 93 47.3 112 5.2 12.7 11.2 26.9 13.3 31.8 l 3.7 8.7 5.1 -0.7 c 28 -4.2 48.7 12.4 48.7 39.2 0.1 19.4 -12 34.4 -30.9 38.4 -6.9 1.4 -11.4 1.3 -18.2 -0.5 z  M828 1065.3 C 828 1058 822.1 1052.1 814.9 1052.1 807.6 1052.1 801.7 1058 801.7 1065.3 801.7 1072.6 807.6 1078.5 814.9 1078.5 822.1 1078.5 828 1072.6 828 1065.3 Z M821.7 1076.5  M703.4 795.9 C 703.4 787.5 696.5 780.6 688.1 780.6 679.6 780.6 672.8 787.5 672.8 795.9 672.8 804.4 679.6 811.2 688.1 811.2 696.5 811.2 703.4 804.4 703.4 795.9 Z M695.2 809.4 "/>
  <path d="M 1051 994.9 c -19.1 -1.7 -35.3 -12.6 -44.3 -29.7 -14 -26.8 -6.5 -57.3 18.1 -73.5 18.1 -11.9 36.6 -13.3 58.3 -4.3 1.7 0.7 3.8 -4 29.9 -66.9 7.6 -18.1 18 -43.2 23.3 -55.6 l 9.6 -22.6 -4.4 -4.9 c -16.4 -17.8 -19.3 -45.1 -6.9 -65.5 6.4 -10.6 19.2 -20.9 31 -24.9 10.6 -3.7 16.8 -4.3 25.6 -2.5 17.1 3.5 27.9 9.6 35.7 20.2 6.2 8.5 9.8 10.8 17.1 10.7 7 -0.1 15.1 -2.4 32 -9 26.3 -10.3 119.4 -42.4 121.2 -41.8 1 0.3 1.8 0.9 1.8 1.4 0 1.8 -7.1 6.6 -13.2 8.9 -8.8 3.4 -71.8 31.4 -110.2 48.9 -35.7 16.3 -34.6 15.5 -36.6 27.3 -3.3 19.3 -17 35 -36.5 41.5 -8.4 2.8 -22.1 3.8 -31.2 2.1 l -4.2 -0.7 -2.9 5.2 c -1.6 2.9 -14.1 25.3 -27.7 49.8 -13.6 24.5 -29.6 53.1 -35.4 63.5 l -10.7 19.1 7.1 6.6 c 12.2 11.4 18.2 26.4 17.2 43.3 -1.9 33.1 -29.8 56.5 -63.7 53.4 z  M1035.6 939.3 C 1035.6 932.3 1029.9 926.6 1023 926.6 1016 926.6 1010.3 932.3 1010.3 939.3 1010.3 946.2 1016 951.9 1023 951.9 1029.9 951.9 1035.6 946.2 1035.6 939.3 Z M1028.7 950.1  M1173.7 691.4 C 1173.7 683.2 1167 676.5 1158.8 676.5 1150.6 676.5 1144 683.2 1144 691.4 1144 699.6 1150.6 706.3 1158.8 706.3 1167 706.3 1173.7 699.6 1173.7 691.4 Z M1167.1 703.5 "/>
  <path d="M430.7 906.9 C 430.7 942.2 402.1 970.8 366.8 970.8 331.5 970.8 302.9 942.2 302.9 906.9 302.9 871.6 331.5 843 366.8 843 402.1 843 430.7 871.6 430.7 906.9 Z M351.7 969.5  M349.2 895.8 C 349.2 887.6 342.5 881 334.3 881 326.1 881 319.5 887.6 319.5 895.8 319.5 904 326.1 910.7 334.3 910.7 342.5 910.7 349.2 904 349.2 895.8 Z M342.5 908 "/>
  <path d="M 3795.5 952 c -37.9 -1.8 -65.5 -8.4 -87 -20.9 -10.3 -6 -26.3 -21.8 -32.1 -31.6 -8.7 -14.9 -12.4 -28.7 -12.4 -46 0 -9.3 0.2 -10.5 1.8 -10.5 0.9 0 23 2.3 49 5.2 l 47.3 5.2 0.5 2.5 c 3 14 7.1 20.1 16.4 24.9 9.3 4.6 17.9 6.2 35.6 6.2 36.2 0 55.8 -8.3 65 -27.7 4.8 -10.2 5.5 -16.8 6 -57.3 l 0.5 -37.5 -2.1 2.5 c -1.2 1.4 -4.7 5.6 -7.8 9.3 -13.8 16.4 -32.8 29.6 -52.2 36.2 -23.9 8.1 -54.2 7.8 -79.9 -1 -35.5 -12 -65.7 -44.8 -80.4 -87.1 -4.2 -12.2 -8.1 -29.2 -9.8 -42.9 -1.5 -12.6 -1.5 -45.7 0.1 -59.5 5.3 -47.5 21.7 -82.4 49.9 -106.7 22.8 -19.5 45.9 -29 76 -31.2 42.7 -3.2 77.1 12 106.8 47.4 l 4.2 5 0.1 -22.7 0 -22.8 40.5 0 40.5 0 0 152.3 c 0 151.3 -0.5 177.1 -3.6 199.7 -5.4 39.9 -20 67.1 -45.3 84.3 -28.5 19.2 -70.4 27.4 -127.6 24.7 z  m 33.9 -205 c 12.6 -3.2 20.8 -8.1 31.6 -19 8.1 -8 10.3 -10.9 14.3 -19 8.3 -16.7 11.7 -34.4 11.7 -60.5 0 -25.3 -3.6 -43.8 -11.5 -60 -9.5 -19.5 -26.4 -33.5 -46.1 -38.1 -10.7 -2.5 -29.6 -1.6 -39.4 1.9 -14.4 5.1 -28.2 17 -36 31 -9.1 16.3 -13 35.8 -13 64.3 0 34.3 4.9 55.6 16.8 73.1 8.5 12.5 23.1 23 37.2 26.7 8.3 2.2 25.1 2 34.4 -0.4 z "/>
  <path d="M2605.3 655 C 2605.3 749.9 2528.3 826.9 2433.4 826.9 2338.4 826.9 2261.4 749.9 2261.4 655 2261.4 560 2338.4 483 2433.4 483 2528.3 483 2605.3 560 2605.3 655 Z M2419.8 826  m 31.5 -71.6 c 22.5 -5.1 41.5 -20.9 52.1 -43.5 14.5 -30.6 14.2 -83.7 -0.6 -113.4 -8.5 -16.8 -22.1 -30.3 -38.1 -37.5 -19.4 -8.7 -45.8 -8.1 -65.1 1.5 -30.3 15.1 -46.6 47.9 -46.6 93.5 0 52.6 22.3 88.8 61.1 98.9 9.6 2.6 27.1 2.8 37.2 0.5 z "/>
  <path d="M 2719.5 825.9 c -50.8 -4 -86.1 -33.5 -94 -78.6 -5.3 -30.1 3.3 -60.4 22.8 -81 18.5 -19.4 40.4 -28.2 102.1 -40.9 34.9 -7.1 53.9 -11.8 68.4 -16.6 l 9.2 -3.2 0 -8 c 0 -21.5 -5.9 -35.1 -17.8 -41.4 -9.5 -5 -16 -6.3 -34.8 -6.9 -13.9 -0.4 -18.6 -0.2 -24.8 1.1 -18.5 4.2 -28.3 13.2 -37.5 34.9 -1.1 2.6 -2.6 4.7 -3.3 4.7 -1.4 0 -76.1 -13.1 -76.5 -13.5 -0.2 -0.1 1.1 -4.2 2.7 -9.1 12.2 -36.1 35.1 -61.5 65.9 -73 19.9 -7.4 42.2 -10.6 74.1 -10.6 51.5 0 80.8 7.1 105 25.7 15.2 11.6 22.9 24.4 26.9 44.1 3.7 18.6 4.1 29.7 4.1 111 0 78.6 0.4 92 3.6 109.2 1.9 10.3 7.1 26.5 11.8 36.8 2 4.2 3.6 7.8 3.6 8 0 0.2 -19.1 0.4 -42.5 0.4 l -42.5 0 -5.7 -17.9 -5.7 -17.8 -9 7.6 c -26.1 22 -51.2 32.6 -82.8 35.1 -6.8 0.5 -12.5 0.9 -12.8 0.8 -0.3 0 -5 -0.4 -10.5 -0.9 z  M2830.2 709.5 C 2830.2 677.5 2804.3 651.6 2772.2 651.6 2740.2 651.6 2714.3 677.5 2714.3 709.5 2714.3 741.5 2740.2 767.5 2772.2 767.5 2804.3 767.5 2830.2 741.5 2830.2 709.5 Z M2776.2 764.1 "/>
  <path d="M 3240.3 825.9 c -23.8 -1.6 -45.7 -7.4 -64.7 -17.2 -42.2 -21.6 -69.6 -66.7 -75.7 -124.5 -1.8 -17.3 -0.7 -54.5 2.1 -70.2 8.3 -46.8 29.9 -82.6 64 -105.9 21.4 -14.7 43.9 -22.3 71.4 -24.1 38.5 -2.5 75.1 6.8 102.6 26.1 10.2 7.2 26.3 23.6 33.1 33.9 19.6 29.4 29.3 65.8 30.6 114.3 l 0.6 21.7 -108.8 0 -108.8 0 0.6 8.8 c 2.6 36.3 23.8 64.6 53.7 71.6 7.6 1.8 23.7 2.1 31.2 0.5 8.5 -1.8 17.4 -6.5 23.7 -12.7 6.6 -6.5 10.2 -12.3 14.8 -23.7 1.8 -4.4 3.8 -8.1 4.5 -8.3 0.7 -0.1 19.5 2.9 41.7 6.8 22.3 3.8 40.9 7 41.4 7 1.5 0 -0.2 4.9 -5.9 16.9 -19.6 41.3 -52.4 67 -97.1 76 -8.8 1.8 -34.9 4.3 -40.8 3.9 -1.1 0 -7.5 -0.5 -14.2 -0.9 z  m 78.2 -206.6 c -2.2 -25.1 -9.2 -41.4 -23.5 -54.6 -12 -11.1 -24.2 -15.7 -41.5 -15.7 -18.9 0 -30.5 4.8 -43.5 17.9 -13.4 13.5 -19.8 28.4 -21.5 50.9 l -0.7 9.2 65.7 0 65.7 0 -0.7 -7.7 z "/>
  <path d="M 4257.5 825.9 c -50.8 -4 -86.1 -33.5 -94 -78.6 -5.3 -30.1 3.3 -60.4 22.8 -81 18.5 -19.4 40.4 -28.2 102.1 -40.9 34.9 -7.1 53.9 -11.8 68.4 -16.6 l 9.2 -3.2 0 -8 c 0 -21.5 -5.9 -35.1 -17.8 -41.4 -9.5 -5 -16 -6.3 -34.8 -6.9 -13.9 -0.4 -18.6 -0.2 -24.8 1.1 -18.5 4.2 -28.3 13.2 -37.5 34.9 -1.1 2.6 -2.6 4.7 -3.3 4.7 -1.4 0 -76.1 -13.1 -76.5 -13.5 -0.2 -0.1 1.1 -4.2 2.7 -9.1 12.2 -36.1 35.1 -61.5 65.9 -73 19.9 -7.4 42.2 -10.6 74.1 -10.6 51.5 0 80.8 7.1 105 25.7 15.2 11.6 22.9 24.4 26.9 44.1 3.7 18.6 4.1 29.7 4.1 111 0 78.6 0.4 92 3.6 109.2 1.9 10.3 7.1 26.5 11.8 36.8 2 4.2 3.6 7.8 3.6 8 0 0.2 -19.1 0.4 -42.5 0.4 l -42.5 0 -5.7 -17.9 -5.7 -17.8 -9 7.6 c -26.1 22 -51.2 32.6 -82.8 35.1 -6.8 0.5 -12.5 0.9 -12.8 0.8 -0.3 0 -5 -0.4 -10.5 -0.9 z  M4368.2 709.5 C 4368.2 677.5 4342.2 651.5 4310.2 651.5 4278.2 651.5 4252.3 677.5 4252.3 709.5 4252.3 741.5 4278.2 767.5 4310.2 767.5 4342.2 767.5 4368.2 741.5 4368.2 709.5 Z M4314.2 764.1 "/>
  <path d="M4661 748.5 C 4661 789.4 4627.8 822.5 4586.9 822.5 4546.1 822.5 4512.9 789.4 4512.9 748.5 4512.9 707.6 4546.1 674.5 4586.9 674.5 4627.8 674.5 4661 707.6 4661 748.5 Z M4578.3 821.9  M4647.2 748.5 C 4647.2 715.3 4620.3 688.4 4587.1 688.4 4554 688.4 4527.1 715.3 4527.1 748.5 4527.1 781.6 4554 808.5 4587.1 808.5 4620.3 808.5 4647.2 781.6 4647.2 748.5 Z M4602.3 806.4 "/>
  <path d="M 4554 749 l 0 -39 15.3 0 c 18.9 0.1 32.5 1.3 36.5 3.4 16.9 8.7 13.6 34 -5 38.7 -4.6 1.2 -6.5 2.9 -3.3 2.9 2.8 0 9 7.5 16.3 19.7 3.9 6.7 7.2 12.4 7.2 12.8 0 0.3 -4.1 0.4 -9.1 0.3 l -9.1 -0.3 -6 -10.9 c -9.7 -17.9 -12.8 -20.6 -22.7 -20.6 l -5.1 0 0 16 0 16 -7.5 0 -7.5 0 0 -39 z  m 43.4 -8.9 c 4.9 -4.7 4.2 -11.5 -1.6 -15.1 -2.8 -1.7 -5.1 -2 -15 -2 l -11.8 0 0 10.1 0 10.1 12.9 -0.4 c 12 -0.3 13.1 -0.5 15.5 -2.7 z "/>
  <path d="M 2974 592.5 l 0 -226.5 43 0 43 0 0 226.5 0 226.5 -43 0 -43 0 0 -226.5 z "/>
  <path d="M 3447 655 l 0 -164 40 0 40 0 0.2 23.7 0.3 23.6 4.9 -7.4 c 11.8 -17.9 23.9 -31.1 34.3 -37.8 20.9 -13.2 53.3 -12.5 82.5 1.7 l 9.7 4.7 -13.1 37 c -7.2 20.4 -13.2 37.1 -13.3 37.2 -0.1 0.2 -4.6 -1.9 -10.1 -4.6 -12.4 -6.2 -19.7 -8.1 -31 -8.1 -25 0 -39.7 11.9 -48.8 39.3 -7.5 22.8 -9.5 55.2 -9.6 155.5 l 0 63.2 -43 0 -43 0 0 -164 z "/>
  <path d="M 4034 655 l 0 -164 43 0 43 0 0 164 0 164 -43 0 -43 0 0 -164 z "/>
  <path d="M 399.3 801.4 c -1 -2.7 0.6 -13.5 8.2 -55.2 11.4 -62.4 22.5 -126.6 22.5 -130 0 -3.3 -2.1 -5.4 -13 -13.2 -12.3 -8.8 -23.9 -26.6 -27.8 -42.7 -1.4 -6.2 -2 -7.3 -3.8 -7.3 -1.1 0 -25 -2 -53 -4.5 -28 -2.5 -59.6 -5.2 -70.3 -6 -17 -1.3 -22.7 -2.3 -21 -3.9 0.2 -0.2 33.1 -0.7 73 -1.1 l 72.7 -0.8 0.7 -6 c 2.8 -24.8 19.8 -48.6 43.1 -60.3 29.6 -14.7 66 -9.5 89.1 12.8 l 4.1 4 7.4 -7 c 4 -3.8 26.7 -24.2 50.3 -45.2 23.7 -21 44 -39.2 45.2 -40.4 l 2.2 -2.1 -2.1 -7.5 c -1.6 -5.9 -2.1 -10.5 -2.2 -21.5 -0.1 -12.6 0.2 -15 2.7 -23.4 3 -10 6.2 -17 10.8 -23.7 l 2.8 -4.1 -11.2 -7.9 c -8.5 -6 -120.5 -89 -126.3 -93.5 -0.6 -0.5 -4.1 0.7 -8.5 3 -10.5 5.6 -17.8 7.4 -28.4 7.4 -27.5 0 -51.2 -16.9 -59.6 -42.4 -2.1 -6.4 -2.4 -9.2 -2.3 -20.9 0 -12.2 0.3 -14.2 2.7 -20.3 7.4 -18.8 23.7 -33.1 43.7 -38.3 8.4 -2.2 22.6 -2.2 30.9 0 19.5 5.1 36.9 21.4 43.2 40.7 2 6.1 2.4 9.4 2.4 18.9 0 6.8 -0.6 13.6 -1.4 16.5 -2.3 8.2 -8.8 19.8 -14.6 26.1 -3 3.2 -5.3 5.9 -5.2 6 0.1 0.1 28.6 17.2 63.2 37.9 34.7 20.7 68 40.8 74.2 44.7 l 11.2 7 4.3 -3.4 c 5.1 -4.1 14.7 -9.9 20.3 -12.3 15.5 -6.6 36.5 -9 52 -6.1 7.9 1.4 8 1.4 9.7 -0.7 1 -1.2 11.9 -17.3 24.4 -35.7 22.4 -33.2 30.4 -43.6 30.4 -39.5 0 2.8 -4.3 11.7 -16.3 33.3 -17.4 31.4 -25.7 46.8 -25.7 47.8 0 0.5 2 1.7 4.5 2.7 15.7 6.5 29.7 20.1 40.8 39.8 3.7 6.6 10.2 12.7 14.3 13.5 3.9 0.7 0.5 1.1 104.4 -12 69.7 -8.7 80.7 -9.9 91.3 -9.7 4.7 0.1 5 2.4 0.6 4.7 -1.8 0.9 -14.7 3.8 -28.8 6.4 -93.5 17.7 -161.6 31.6 -166 33.9 -2.8 1.6 -4.8 6.8 -5.5 14.8 -1.4 14.7 -6.8 28.6 -16 41.1 -2.5 3.4 -4.6 6.6 -4.6 7 0 0.4 1.6 2.4 3.6 4.3 2 1.8 9.1 9.3 15.7 16.4 10.8 11.6 37.9 40.3 57.1 60.3 l 7 7.4 3.5 -2.2 c 25.4 -15.4 54.9 -17.4 80 -5.5 36.8 17.5 54.2 54.7 44.2 94.9 -2.2 8.6 -2.7 12.5 -2.1 14.2 0.5 1.3 3.4 4 6.4 5.9 10 6.4 51.8 29.5 80 44.3 16.2 8.5 28.5 15.6 29.3 16.9 3.8 5.8 -3.6 5.5 -17.8 -0.8 -5.2 -2.2 -28.1 -11.7 -50.9 -21.1 -22.8 -9.3 -44.4 -18.3 -48 -20 -3.6 -1.6 -8.8 -3.2 -11.5 -3.5 -4.8 -0.5 -5.4 -0.3 -13.1 5 -10 6.9 -17.5 10.6 -28.4 14.3 -7.7 2.5 -9.8 2.8 -21.5 2.8 -36.4 -0.2 -62.2 -16 -76.5 -46.8 -7.5 -16.1 -9.5 -36.2 -5.1 -52.1 3.6 -13 10.2 -25.5 17.7 -33.5 3.6 -3.8 6.4 -7.4 6.2 -7.9 -0.5 -1.3 -21.2 -19.1 -51.8 -44.5 -14.6 -12.1 -29.5 -24.8 -33.2 -28.4 l -6.6 -6.3 -6 4 c -26.5 18.2 -60.3 20.4 -90.7 6.2 -15.8 -7.4 -28.9 -18.8 -36.9 -32 -2.1 -3.3 -4 -6.1 -4.4 -6.1 -0.9 0.1 -18.7 13.1 -69.4 51 l -39.6 29.5 2.7 3.5 c 6.8 8.8 12.4 21.8 14.8 34.4 3.4 17.7 -0.6 39.1 -10.2 55 -1.9 3.2 -3.5 7 -3.5 8.5 0 4.8 3 8.5 40 49.1 19.2 21.1 79.5 88.7 89.6 100.5 5.1 6 11.4 15.2 11.4 16.7 0 3.4 -9.6 -4.8 -36.5 -31.2 -12.1 -11.9 -38.6 -37.3 -59 -56.5 -20.3 -19.2 -41.9 -39.6 -47.8 -45.2 -16.5 -15.9 -17.9 -16.4 -29.4 -11.2 -8.8 4 -22.6 6.9 -33.3 6.9 -9.4 0 -12.4 1.2 -14.2 5.9 -0.5 1.4 -5.2 18.4 -10.3 37.6 -5.1 19.3 -13.6 51.2 -18.9 71 -18.7 69.7 -18.4 68.5 -20.8 68.5 -0.5 0 -1.1 -0.7 -1.5 -1.6 z  M888 553.5 C 888 546.2 882.1 540.2 874.7 540.2 867.4 540.2 861.5 546.2 861.5 553.5 861.5 560.8 867.4 566.8 874.7 566.8 882.1 566.8 888 560.8 888 553.5 Z M881.4 565.1  M434.5 510.6 C 434.5 503.5 428.7 497.7 421.5 497.7 414.4 497.7 408.5 503.5 408.5 510.6 408.5 517.8 414.4 523.6 421.5 523.6 428.7 523.6 434.5 517.8 434.5 510.6 Z M426.9 522  M691.4 336.3 C 691.4 327.3 684.1 320 675.1 320 666.1 320 658.8 327.3 658.8 336.3 658.8 345.3 666.1 352.6 675.1 352.6 684.1 352.6 691.4 345.3 691.4 336.3 Z M683.1 350.7  M454.3 135 C 454.3 126.2 447.1 119 438.3 119 429.4 119 422.3 126.2 422.3 135 422.3 143.9 429.4 151 438.3 151 447.1 151 454.3 143.9 454.3 135 Z M445.7 148.9 "/>
  <path d="M1510.1 585.2 C 1510.1 617 1484.4 642.7 1452.7 642.7 1421 642.7 1395.2 617 1395.2 585.2 1395.2 553.5 1421 527.8 1452.7 527.8 1484.4 527.8 1510.1 553.5 1510.1 585.2 Z M1439.6 641.5  M1437.8 582.9 C 1437.8 575.8 1432 569.9 1424.9 569.9 1417.7 569.9 1411.9 575.8 1411.9 582.9 1411.9 590.1 1417.7 595.9 1424.9 595.9 1432 595.9 1437.8 590.1 1437.8 582.9 Z M1431.6 594.1 "/>
  <path d="M 1168.2 629.3 c -1.6 -4.1 -2.4 -7.5 -10.1 -43.3 -3.9 -17.9 -14.2 -65.6 -23.1 -106 -8.8 -40.4 -16.7 -76.6 -17.5 -80.5 -2.5 -11.2 -3.1 -11.7 -17.1 -12.6 -17.9 -1.2 -29.5 -4.8 -41.6 -12.9 -12.7 -8.5 -21.1 -17.6 -27.2 -29.9 -6.6 -13 -8.1 -19.8 -8.1 -36.6 0 -12.9 0.3 -16.1 2.3 -22.5 8.4 -27 29.1 -47.5 55.8 -55.2 6.6 -1.9 10.3 -2.3 22.4 -2.3 12.4 0 15.6 0.3 22 2.3 13.9 4.4 22.5 9.6 33 20.2 11.4 11.4 15 17.3 20.5 33.3 3 8.7 4.8 12.6 6.5 13.8 2.2 1.6 8.9 2.1 59.5 4.3 31.4 1.4 67 2.7 79.3 3.1 20.7 0.5 32.2 1.7 32.2 3.3 -0.1 3 -2.3 3.7 -12.7 3.9 -23.8 0.7 -128.7 4.4 -142.6 5.1 -17.8 1 -17.8 1 -22.6 15.1 -1.8 5.1 -4.6 11.7 -6.2 14.6 -4.6 8.2 -13.6 18.3 -22.8 25.4 -11.6 9.1 -12.6 10.7 -12.5 18.9 0.1 3.7 1.3 13.7 2.7 22.2 1.5 8.5 7.6 48.8 13.7 89.5 19.3 128.9 19.4 129.5 16.6 129.5 -0.7 0 -1.8 -1.2 -2.4 -2.7 z  M1079.9 283.6 C 1079.9 276.5 1074.1 270.7 1067 270.7 1059.9 270.7 1054.1 276.5 1054.1 283.6 1054.1 290.8 1059.9 296.6 1067 296.6 1074.1 296.6 1079.9 290.8 1079.9 283.6 Z M1073 294.9 "/>
  <path d="M231.7 542.3 C 231.7 563.7 214.3 581.1 192.8 581.1 171.4 581.1 154 563.7 154 542.3 154 520.8 171.4 503.4 192.8 503.4 214.3 503.4 231.7 520.8 231.7 542.3 Z M186.2 580.9  M184 525.7 C 184 520.7 179.9 516.6 174.9 516.6 169.9 516.6 165.9 520.7 165.9 525.7 165.9 530.6 169.9 534.7 174.9 534.7 179.9 534.7 184 530.6 184 525.7 Z M181.1 532.1 "/>
  <path d="M 4034 406 l 0 -40 43 0 43 0 0 40 0 40 -43 0 -43 0 0 -40 z "/>
  <path d="M1448.2 307 C 1448.2 328.5 1430.8 345.8 1409.4 345.8 1387.9 345.8 1370.6 328.5 1370.6 307 1370.6 285.6 1387.9 268.2 1409.4 268.2 1430.8 268.2 1448.2 285.6 1448.2 307 Z M1400 344.7  M1403.2 308.2 C 1403.2 302.7 1398.8 298.3 1393.3 298.3 1387.8 298.3 1383.4 302.7 1383.4 308.2 1383.4 313.7 1387.8 318.1 1393.3 318.1 1398.8 318.1 1403.2 313.7 1403.2 308.2 Z M1398.9 316.4 "/>
  <path d="M912.8 122 C 912.8 158.5 883.2 188 846.8 188 810.3 188 780.7 158.5 780.7 122 780.7 85.6 810.3 56 846.8 56 883.2 56 912.8 85.6 912.8 122 Z M833.1 186.4  M834.2 98.1 C 834.2 90.6 828.1 84.6 820.6 84.6 813.1 84.6 807 90.6 807 98.1 807 105.6 813.1 111.7 820.6 111.7 828.1 111.7 834.2 105.6 834.2 98.1 Z M827 110 "/>
 </g>
 <g fill="#0f66b8">
  <path d="M430.7 906.9 C 430.7 942.2 402.1 970.8 366.8 970.8 331.5 970.8 302.9 942.2 302.9 906.9 302.9 871.6 331.5 843 366.8 843 402.1 843 430.7 871.6 430.7 906.9 Z M351.7 969.5  M349.2 895.8 C 349.2 887.6 342.5 881 334.3 881 326.1 881 319.5 887.6 319.5 895.8 319.5 904 326.1 910.7 334.3 910.7 342.5 910.7 349.2 904 349.2 895.8 Z M342.5 908 "/>
  <path d="M 982 920 c -1.4 -0.4 -27.2 -7.6 -57.5 -15.8 -30.2 -8.3 -66.5 -18.3 -80.5 -22.2 -47 -13.3 -53.2 -15 -65.1 -17.5 -6.6 -1.4 -13.6 -2.5 -15.5 -2.5 -4.1 0 -11.4 1.9 -11.4 3 0 0.4 -3.7 2.4 -8.2 4.6 l -8.3 3.9 -16.5 0 c -19.6 0 -24.4 -1.2 -35.4 -8.6 -13.3 -8.9 -23.1 -21.4 -28.3 -36.1 -3.4 -9.3 -3.8 -25.5 -1 -35.8 7 -25.7 27.3 -44.6 52 -48.7 20.4 -3.3 41.9 3.1 56 16.5 3.7 3.6 6.7 6.9 6.7 7.3 0 0.4 1.4 2.8 3.1 5.3 1.7 2.5 4.4 8.3 6.1 12.8 3.5 9.3 4 17.2 2.4 35.5 -0.8 8.8 -0.6 10.9 0.9 14.9 1.4 3.8 2.5 5 6 6.5 10.5 4.6 137.1 49.3 168.5 59.4 21 6.8 39.4 14.8 38.7 16.8 -0.4 1.4 -9.1 1.9 -12.7 0.7 z  M703.4 795.9 C 703.4 787.5 696.5 780.6 688.1 780.6 679.7 780.6 672.8 787.5 672.8 795.9 672.8 804.4 679.7 811.2 688.1 811.2 696.5 811.2 703.4 804.4 703.4 795.9 Z M695.2 809.4 "/>
  <path d="M2605.3 655 C 2605.3 749.9 2528.3 826.9 2433.4 826.9 2338.4 826.9 2261.4 749.9 2261.4 655 2261.4 560 2338.4 483 2433.4 483 2528.3 483 2605.3 560 2605.3 655 Z M2419.8 826  m 31.5 -71.6 c 22.5 -5.1 41.5 -20.9 52.1 -43.5 14.5 -30.6 14.2 -83.7 -0.6 -113.4 -8.5 -16.8 -22.1 -30.3 -38.1 -37.5 -19.4 -8.7 -45.8 -8.1 -65.1 1.5 -30.3 15.1 -46.6 47.9 -46.6 93.5 0 52.6 22.3 88.8 61.1 98.9 9.6 2.6 27.1 2.8 37.2 0.5 z "/>
  <path d="M 1704 592.7 l 0 -226.7 90.8 0 c 143.1 0 168.6 1.6 194.7 12 36.5 14.5 64 48.8 69.5 86.9 1.8 12.2 0.8 31.3 -2.3 43.2 -7.5 28.7 -25.8 52.3 -52.2 67.4 -6.3 3.6 -7.5 4.6 -5.9 5.1 17.5 6.2 26.7 10.5 37.1 17.5 20.8 14.1 36.1 35.4 42.9 59.9 2.1 7.9 2.7 12.3 3.1 26 0.6 19.3 -0.8 29.5 -6.2 45.7 -13 38.9 -39.7 66.7 -75.6 78.7 -25.3 8.5 -42.2 9.4 -188.1 10.3 l -107.8 0.6 0 -226.6 z  m 227.5 148.3 c 19.4 -1.8 30.4 -6.2 41.3 -16.5 10.2 -9.6 14.6 -19.6 15.8 -36 1.7 -24.2 -9.7 -45.3 -29.9 -54.9 -16.6 -8 -34.5 -9.6 -109.5 -9.6 l -55.2 0 0 59 0 59 63.3 0 c 34.7 0 68.2 -0.5 74.2 -1 z  m -11.7 -195.1 c 17.1 -1.9 29.3 -7.1 38.6 -16.4 9.2 -9.2 13.6 -20.7 13.6 -35.5 0 -14.8 -4.5 -26.6 -13.4 -35.6 -6.2 -6.1 -12.8 -9.7 -23.4 -12.7 -7.4 -2 -10.1 -2.1 -74.4 -2.5 l -66.8 -0.3 0 52 0 52.1 58 0 c 34.6 0 62 -0.4 67.8 -1.1 z "/>
  <path d="M 2135 655 l 0 -164 43 0 43 0 0 164 0 164 -43 0 -43 0 0 -164 z "/>
  <path d="M 1169.9 754.6 c -10.2 -2.2 -18.4 -6.8 -26 -14.7 -18.7 -19.5 -22.4 -46.4 -9.3 -68 6.4 -10.6 19.2 -20.9 31 -24.9 10.6 -3.7 16.8 -4.3 25.6 -2.5 17.1 3.5 27.9 9.6 35.7 20.2 6.2 8.5 9.8 10.8 17.1 10.7 7 -0.1 15.1 -2.4 32 -9 26.3 -10.3 119.4 -42.4 121.2 -41.8 1 0.3 1.8 0.9 1.8 1.4 0 1.8 -7.1 6.6 -13.2 8.9 -8.8 3.4 -71.8 31.4 -110.2 48.9 -35.7 16.3 -34.6 15.5 -36.6 27.3 -4.3 25.3 -25.9 43.3 -53.5 44.5 -5.3 0.2 -11.7 -0.2 -15.6 -1 z  M1173.7 691.4 C 1173.7 683.2 1167 676.5 1158.8 676.5 1150.6 676.5 1144 683.2 1144 691.4 1144 699.6 1150.6 706.3 1158.8 706.3 1167 706.3 1173.7 699.6 1173.7 691.4 Z M1167.1 703.5 "/>
  <path d="M231.7 542.3 C 231.7 563.7 214.3 581.1 192.8 581.1 171.4 581.1 154 563.7 154 542.3 154 520.8 171.4 503.4 192.8 503.4 214.3 503.4 231.7 520.8 231.7 542.3 Z M186.2 580.9  M184 525.7 C 184 520.7 179.9 516.6 174.9 516.6 169.9 516.6 165.9 520.7 165.9 525.7 165.9 530.6 169.9 534.7 174.9 534.7 179.9 534.7 184 530.6 184 525.7 Z M181.1 532.1 "/>
  <path d="M 331 548.4 c -26.1 -2.3 -56.7 -5 -67.9 -5.8 -17.9 -1.4 -23.7 -2.4 -22 -4 0.2 -0.2 32.8 -0.7 72.5 -1.1 l 72.1 -0.8 0.6 4.8 c 0.4 2.6 0.7 6.3 0.7 8.1 0 3.3 -0.1 3.4 -4.2 3.3 -2.4 -0.1 -25.7 -2.1 -51.8 -4.5 z "/>
  <path d="M 706.9 456 c -15.3 -1.9 -33.3 -8.8 -45.2 -17.4 -8.2 -5.8 -16.4 -14.5 -22.2 -23.6 -6.3 -9.8 -8.9 -15.8 -12.2 -28.2 -2.3 -8.8 -2.7 -12.3 -2.7 -23.8 -0.1 -11.9 0.3 -14.6 2.7 -22.9 7.6 -25.6 24.6 -45.2 49.5 -57.2 15.3 -7.4 35.6 -10.4 52.3 -7.9 4.6 0.7 9.3 1.4 10.4 1.5 7.2 1 22.4 7.6 31.5 13.8 10.8 7.4 19.8 17.8 28.3 32.8 3.7 6.6 10.2 12.7 14.3 13.5 3.9 0.7 0.5 1.1 104.4 -12 69.7 -8.7 80.7 -9.9 91.3 -9.7 4.7 0.1 5 2.4 0.6 4.7 -1.8 0.9 -14.7 3.8 -28.8 6.4 -93.5 17.7 -161.6 31.6 -166 33.9 -2.8 1.6 -4.8 6.8 -5.5 14.8 -2.9 30.8 -24.6 59.3 -56.2 73.9 -13.4 6.2 -32.2 9.2 -46.5 7.4 z  M691.4 336.3 C 691.4 327.3 684.1 320 675.1 320 666.1 320 658.8 327.3 658.8 336.3 658.8 345.3 666.1 352.6 675.1 352.6 684.1 352.6 691.4 345.3 691.4 336.3 Z M683.1 350.7 "/>
  <path d="M 2135 406 l 0 -40 43 0 43 0 0 40 0 40 -43 0 -43 0 0 -40 z "/>
  <path d="M1448.2 307 C 1448.2 328.5 1430.8 345.8 1409.4 345.8 1387.9 345.8 1370.6 328.5 1370.6 307 1370.6 285.6 1387.9 268.2 1409.4 268.2 1430.8 268.2 1448.2 285.6 1448.2 307 Z M1400 344.7  M1403.2 308.2 C 1403.2 302.7 1398.8 298.3 1393.3 298.3 1387.8 298.3 1383.4 302.7 1383.4 308.2 1383.4 313.7 1387.8 318.1 1393.3 318.1 1398.8 318.1 1403.2 313.7 1403.2 308.2 Z M1398.9 316.4 "/>
 </g>
</svg>